<svg xmlns="http://www.w3.org/2000/svg" width="600" height="600" viewBox="0 0 600 600"><defs><linearGradient id="bgGrad" x1="0%" y1="0%" x2="100%" y2="100%"><stop offset="0%" style="stop-color:#0d1b2e"/><stop offset="100%" style="stop-color:#0a0f1a"/></linearGradient><linearGradient id="coreGrad" x1="0%" y1="0%" x2="100%" y2="100%"><stop offset="0%" style="stop-color:#00c6ff"/><stop offset="100%" style="stop-color:#0072ff"/></linearGradient><filter id="glow"><feGaussianBlur stdDeviation="4" result="coloredBlur"/><feMerge><feMergeNode in="coloredBlur"/><feMergeNode in="SourceGraphic"/></feMerge></filter><filter id="softglow"><feGaussianBlur stdDeviation="12" result="coloredBlur"/><feMerge><feMergeNode in="coloredBlur"/><feMergeNode in="SourceGraphic"/></feMerge></filter></defs><rect width="600" height="600" fill="url(#bgGrad)" rx="32"/><circle cx="300" cy="230" r="148" fill="none" stroke="#1a3a5c" stroke-width="1.5" opacity="0.5"/><circle cx="300" cy="230" r="118" fill="none" stroke="#1e4a7a" stroke-width="1" opacity="0.6"/><circle cx="300" cy="230" r="88" fill="none" stroke="#00c6ff" stroke-width="0.8" opacity="0.3"/><ellipse cx="300" cy="230" rx="148" ry="44" fill="none" stroke="#00aaff" stroke-width="1.2" opacity="0.35"/><ellipse cx="300" cy="230" rx="118" ry="35" fill="none" stroke="#00c6ff" stroke-width="1" opacity="0.25"/><circle cx="300" cy="230" r="62" fill="#091828" stroke="#00c6ff" stroke-width="1.5" filter="url(#softglow)"/><circle cx="300" cy="230" r="47" fill="none" stroke="#00e5ff" stroke-width="1" opacity="0.6"/><polygon points="300,195 323,244 277,244" fill="url(#coreGrad)" opacity="0.95" filter="url(#glow)"/><line x1="300" y1="170" x2="300" y2="160" stroke="#00c6ff" stroke-width="2" opacity="0.7"/><line x1="300" y1="290" x2="300" y2="300" stroke="#00c6ff" stroke-width="2" opacity="0.7"/><line x1="164" y1="230" x2="154" y2="230" stroke="#00c6ff" stroke-width="2" opacity="0.7"/><line x1="436" y1="230" x2="446" y2="230" stroke="#00c6ff" stroke-width="2" opacity="0.7"/><line x1="204" y1="134" x2="197" y2="127" stroke="#00c6ff" stroke-width="1.5" opacity="0.5"/><line x1="396" y1="326" x2="403" y2="333" stroke="#00c6ff" stroke-width="1.5" opacity="0.5"/><line x1="396" y1="134" x2="403" y2="127" stroke="#00c6ff" stroke-width="1.5" opacity="0.5"/><line x1="204" y1="326" x2="197" y2="333" stroke="#00c6ff" stroke-width="1.5" opacity="0.5"/><rect x="95" y="340" width="410" height="10" rx="5" fill="#0d2240" opacity="0.9"/><rect x="95" y="340" width="410" height="10" rx="5" fill="none" stroke="#1a4a7a" stroke-width="0.8" opacity="0.6"/><rect x="103" y="342.5" width="58" height="5" rx="2.5" fill="#00c6ff" opacity="0.9"/><rect x="170" y="342.5" width="105" height="5" rx="2.5" fill="#0072ff" opacity="0.7"/><rect x="284" y="342.5" width="42" height="5" rx="2.5" fill="#ff4a6e" opacity="0.8"/><rect x="95" y="358" width="410" height="10" rx="5" fill="#0d2240" opacity="0.9"/><rect x="95" y="358" width="410" height="10" rx="5" fill="none" stroke="#1a4a7a" stroke-width="0.8" opacity="0.6"/><rect x="103" y="360.5" width="84" height="5" rx="2.5" fill="#00c6ff" opacity="0.9"/><rect x="196" y="360.5" width="63" height="5" rx="2.5" fill="#0072ff" opacity="0.7"/><rect x="268" y="360.5" width="126" height="5" rx="2.5" fill="#00b894" opacity="0.8"/><rect x="403" y="360.5" width="37" height="5" rx="2.5" fill="#ff4a6e" opacity="0.8"/><rect x="95" y="376" width="410" height="10" rx="5" fill="#0d2240" opacity="0.9"/><rect x="95" y="376" width="410" height="10" rx="5" fill="none" stroke="#1a4a7a" stroke-width="0.8" opacity="0.6"/><rect x="103" y="378.5" width="37" height="5" rx="2.5" fill="#ffb300" opacity="0.85"/><rect x="148" y="378.5" width="94" height="5" rx="2.5" fill="#0072ff" opacity="0.7"/><rect x="251" y="378.5" width="73" height="5" rx="2.5" fill="#00c6ff" opacity="0.6"/><rect x="95" y="394" width="410" height="10" rx="5" fill="#0d2240" opacity="0.9"/><rect x="95" y="394" width="410" height="10" rx="5" fill="none" stroke="#1a4a7a" stroke-width="0.8" opacity="0.6"/><rect x="103" y="396.5" width="58" height="5" rx="2.5" fill="#00c6ff" opacity="0.9"/><rect x="170" y="396.5" width="147" height="5" rx="2.5" fill="#0072ff" opacity="0.7"/><rect x="326" y="396.5" width="52" height="5" rx="2.5" fill="#ff4a6e" opacity="0.8"/><text x="300" y="480" font-family="'Segoe UI',Arial,sans-serif" font-weight="700" font-size="56" letter-spacing="9" fill="url(#coreGrad)" text-anchor="middle" filter="url(#glow)">VPDLX</text><text x="300" y="514" font-family="'Segoe UI',Arial,sans-serif" font-weight="300" font-size="11" letter-spacing="3.5" fill="#4a8ab5" text-anchor="middle">VIRTUAL POWERSHELL DATA-LOGGER EXTENSION</text><line x1="108" y1="463" x2="220" y2="463" stroke="#1a3a5c" stroke-width="0.8" opacity="0.7"/><line x1="380" y1="463" x2="492" y2="463" stroke="#1a3a5c" stroke-width="0.8" opacity="0.7"/></svg>